<svg xmlns="http://www.w3.org/2000/svg" viewBox="0 0 48 48"><path fill="#FFC107" d="M43.6 20.5H42V20H24v8h11.3C33.7 32.6 29.3 36 24 36c-6.6 0-12-5.4-12-12s5.4-12 12-12c3 0 5.7 1.1 7.8 2.9l5.7-5.7C34.2 6.1 29.4 4 24 4 12.9 4 4 12.9 4 24s8.9 20 20 20 20-8.9 20-20c0-1.2-.1-2.1-.4-3.5z"/><path fill="#FF3D00" d="M6.3 14.7l6.6 4.8C14.5 15.3 18.9 12 24 12c3 0 5.7 1.1 7.8 2.9l5.7-5.7C34.2 6.1 29.4 4 24 4 16.1 4 9.2 8.6 6.3 14.7z"/><path fill="#4CAF50" d="M24 44c5.2 0 10-2 13.6-5.2l-6.3-5.3C29.3 35.9 26.8 37 24 37c-5.2 0-9.6-3.4-11.2-8l-6.5 5C9.2 39.4 16.1 44 24 44z"/><path fill="#1976D2" d="M43.6 20.5H42V20H24v8h11.3c-1.3 3.9-5.1 7-9.3 7-5.2 0-9.6-3.4-11.2-8l-6.5 5C9.2 39.4 16.1 44 24 44c8.4 0 15.5-5.8 17.6-13.5.7-2.2 1-4.7 1-7.5 0-1.2-.1-2.1-.4-3.5z"/></svg>